<?xml version="1.0" encoding="UTF-8" standalone="no"?>
<!-- Created with Inkscape (http://www.inkscape.org/) -->

<svg
   width="120.49916mm"
   height="168.75546mm"
   viewBox="0 0 120.49916 168.75546"
   version="1.1"
   id="svg4227"
   xml:space="preserve"
   xmlns="http://www.w3.org/2000/svg"
   xmlns:svg="http://www.w3.org/2000/svg"><defs
     id="defs4224" /><g
     id="layer1"
     transform="translate(-71.261018,-32.34579)"><g
       id="layer1-2"
       transform="matrix(0.26458333,0,0,0.26458333,67.150122,-42.3395)"
       style="display:inline"><path
         id="path2208"
         d="M 30.954,380.87 71.39,918.08 h 332.16 l 49.1,-531.5 -421.7,-5.71 z"
         fill-rule="evenodd"
         stroke="#000000"
         stroke-width="4.022"
         fill="#f1eae6"
         style="fill:#b3b3b3" /><path
         d="m -384.98521,298.96132 374.598308,-0.29998 -25.79299,260.75852 -329.378338,1.09329 z"
         style="fill:#603a1a;fill-opacity:1;stroke:none;stroke-width:1.92329"
         id="path624-3"
         transform="translate(438.69087,357.46952)" /><g
         id="g6665"
         stroke="#000000"
         transform="matrix(0.89364,0,0,1.0001,1.6643,-0.061186)"
         style="display:inline;fill:#e6e6e6"><path
           id="path1185"
           d="M 30.954,380.87 71.39,918.08 h 332.16 l 49.1,-531.5 -421.7,-5.71 z"
           fill-rule="evenodd"
           stroke="#000000"
           stroke-width="4.022"
           fill="#f1eae6"
           style="fill:none"
           transform="matrix(1.1190189,0,0,0.99990002,-1.8623814,0.0611795)" /><path
           id="path2210"
           d="m 17.124,414.48 12.069,-16.09 c 0,0 -4.931,-13.52 1.104,-21.56 6.035,-8.05 23.036,-10.6 23.036,-10.6 l 12.069,-16.09 h 396.58 l 14.65,15.92 c 0,0 14.38,0.9 21.71,8.86 7.33,7.95 7.6,22.96 7.6,22.96 l 14.66,15.91 -503.48,0.69 z"
           stroke-width="4"
           fill="#fff"
           fill-rule="evenodd"
           style="fill:#333333" /><path
           id="path3190"
           d="m 66.151,350.52 -0.033,-33.73 198.01,0.14 105.55,-33.12 70.45,0.59 0.25,31.53 21.75,1.14 0.05,33.1 -396.03,0.35 z"
           stroke-width="3"
           fill="#fff"
           fill-rule="evenodd"
           style="fill:#999999" /><path
           id="path3194"
           d="m 53.699,366.57 422.3,-0.27"
           stroke-width="3"
           stroke-opacity="0.83137"
           fill="none"
           style="fill:#2b0000" /><path
           id="path3577"
           d="m 28.984,399.35 477.82,-0.78"
           stroke-width="3"
           stroke-opacity="0.83137"
           fill="none"
           style="fill:#e6e6e6" /></g><g
         id="g549"
         transform="matrix(0.69733807,0,0,0.69733807,133.89885,127.89328)"><g
           id="g543"
           transform="translate(111.07,-83.302501)"><path
             id="path5891"
             d="m 45.001,541.62 5.327,93.99 278.3,-0.89 7.18,-92.1 -290.81,-1 z"
             fill="#9a683b"
             fill-rule="evenodd"
             style="fill:#000000" /><text
             xml:space="preserve"
             style="font-size:35.2988px;fill:#ffffff;stroke-width:3.92111"
             x="59.727718"
             y="598.95038"
             id="text483"><tspan
               id="tspan481"
               x="59.727718"
               y="598.95038"
               style="stroke-width:3.92111">Coffee Secrets</tspan></text></g></g><text
         xml:space="preserve"
         style="font-size:61.7959px;fill:#ffffff;stroke-width:6.86448"
         x="100.56095"
         y="803.30536"
         id="text956"><tspan
           id="tspan954"
           x="100.56095"
           y="803.30536"
           style="stroke-width:6.86448">Espresso </tspan></text></g></g></svg>
