<?xml version="1.0" encoding="UTF-8" standalone="no"?>
<!-- Created with Inkscape (http://www.inkscape.org/) -->

<svg
   width="36.707386mm"
   height="36.929825mm"
   viewBox="0 0 36.707386 36.929825"
   version="1.1"
   id="svg5"
   xml:space="preserve"
   xmlns:inkscape="http://www.inkscape.org/namespaces/inkscape"
   xmlns:sodipodi="http://sodipodi.sourceforge.net/DTD/sodipodi-0.dtd"
   xmlns="http://www.w3.org/2000/svg"
   xmlns:svg="http://www.w3.org/2000/svg"><sodipodi:namedview
     id="namedview7"
     pagecolor="#ffffff"
     bordercolor="#000000"
     borderopacity="0.25"
     inkscape:showpageshadow="2"
     inkscape:pageopacity="0.0"
     inkscape:pagecheckerboard="0"
     inkscape:deskcolor="#d1d1d1"
     inkscape:document-units="mm"
     showgrid="false" /><defs
     id="defs2" /><g
     inkscape:label="Layer 1"
     inkscape:groupmode="layer"
     id="layer1"
     transform="translate(-28.476027,-251.16743)"><ellipse
       style="fill:#ffffff;stroke-width:0.478442"
       id="path363"
       cx="46.82972"
       cy="269.63235"
       rx="18.353691"
       ry="18.464924" /><g
       id="g151"
       transform="matrix(0.26458333,0,0,0.26458333,37.628004,252.874)"><g
         id="g11875"
         transform="matrix(1.3333333,0,0,-1.3333333,478.41045,912.55131)"
         style="display:inline;fill:#685938;fill-opacity:1"
         inkscape:export-filename="df.svg"
         inkscape:export-xdpi="96"
         inkscape:export-ydpi="96"><path
           d="m -355.52645,626.63523 c -0.025,-0.012 -0.051,-0.023 -0.077,-0.034 1.154,-2.761 2.088,-5.642 3.514,-8.255 2.048,-3.753 4.398,-7.347 6.721,-10.943 2.736,-4.238 6.743,-6.705 11.723,-6.882 3.224,-0.114 6.543,0.443 9.713,1.167 7.875,1.796 14.026,5.79 16.047,14.212 0.419,1.746 1.347,2.33 2.895,2.817 6.551,2.061 10.518,6.589 9.15,13.438 -0.512,2.563 -1.378,5.297 -4.449,5.947 -1.768,0.373 -3.657,0.275 -5.487,0.224 -1.173,-0.033 -1.663,0.234 -1.87,1.503 -0.564,3.457 -3.481,7.802 -7.866,8.143 -5.999,0.467 -11.942,0.2 -17.807,-1.065 -6.655,-1.433 -13.042,-3.624 -18.655,-7.627 -5.009,-3.573 -5.853,-6.406 -3.732,-12.136 0.063,-0.169 0.12,-0.339 0.18,-0.509 m 14.723,20.796 c 3.998,1.309 8.127,2.058 12.524,2.54 3.823,0.42 7.709,0.654 11.546,0.487 5.538,-0.241 8.65,-3.873 10.489,-8.705 0.475,-1.248 1.032,-1.777 2.301,-1.624 0.295,0.035 0.597,10e-4 0.896,0.007 5.887,0.124 8.869,-3.494 9.148,-9.358 0.277,-5.794 -2.461,-9.509 -7.2,-12.147 -1.014,-0.564 -2.155,-0.976 -3.288,-1.231 -1.168,-0.262 -1.505,-0.975 -1.704,-1.999 -0.867,-4.466 -3.456,-8.007 -6.915,-10.613 -4.874,-3.672 -10.468,-5.82 -16.688,-6.348 -4.779,-0.406 -9.14,0.481 -12.811,3.473 -3.329,2.714 -6.182,5.969 -8.126,9.874 -2.285,4.59 -4.493,9.218 -6.731,13.831 -2.72,5.605 -1.547,10.468 3.063,14.429 2.046,1.758 4.304,3.25 6.689,4.507 2.243,1.183 4.503,2.123 6.807,2.877"
           style="display:inline;fill:#685938;fill-opacity:1;fill-rule:nonzero;stroke:none"
           id="path12019" /><path
           d="m -317.08305,638.54293 c -6.551,1.476 -24.632,-3.701 -26.685,-7.423 9.605,-0.477 18.103,2.916 26.685,7.423 m -23.073,2.152 c -2.296,-1.176 -6.513,-2.792 -9.873,-5.887 -0.617,-0.568 -0.968,-1.424 -1.442,-2.146 0.835,-0.496 1.618,-1.211 2.52,-1.426 0.857,-0.203 2.36,-0.226 2.68,0.262 2.042,3.112 5.148,4.651 8.414,5.74 4.194,1.396 8.501,2.503 12.819,3.457 3.008,0.665 6.109,1.108 9.098,-0.48 0.403,-0.214 1.466,0.268 1.851,0.735 0.313,0.38 0.312,1.612 0.029,1.788 -1.221,0.76 -2.58,1.742 -3.92,1.792 -6.98,0.258 -13.821,-0.689 -22.176,-3.835 m 1.82,2.665 c 6.483,2.429 13.217,3.278 20.083,3.118 1.327,-0.031 2.799,-0.42 3.929,-1.101 3.991,-2.407 3.196,-5.522 0.111,-7.542 -6.593,-4.318 -13.773,-7.488 -21.731,-8.202 -4.527,-0.405 -9.104,-0.344 -13.658,-0.299 -1.654,0.016 -3.622,0.936 -3.668,2.567 -0.041,1.497 0.96,3.402 2.108,4.484 3.626,3.418 8.2,5.293 12.826,6.975"
           style="display:inline;fill:#685938;fill-opacity:1;fill-rule:nonzero;stroke:none"
           id="path12023" /><path
           d="m -304.30575,624.88373 c 2.986,0.976 4.382,3.146 3.625,5.62 -0.467,1.525 -2.499,2.617 -3.871,2.172 0.081,-2.576 0.162,-5.12 0.246,-7.792 m 1.038,-1.922 c -2.664,-0.775 -3.21,-0.338 -3.182,2.347 0.025,2.433 -1.792,8.027 1.532,9.086 2.95,0.94 5.438,-0.931 6.135,-3.592 0.482,-1.836 0.273,-4.359 -1.284,-5.66 -0.986,-0.824 -2.129,-1.46 -3.201,-2.181"
           style="display:inline;fill:#685938;fill-opacity:1;fill-rule:nonzero;stroke:none"
           id="path12027" /></g><g
         id="g13193"
         transform="matrix(0.66711685,-0.29841578,-0.29841578,-0.66711685,-62.2712,269.28556)"
         style="fill:#685938;fill-opacity:1"><path
           d="m 236.2007,230.83442 c -0.69621,-0.0693 -1.33772,0.28762 -1.64795,1.00942 -6.93126,16.10802 0.12929,26.66555 6.35849,35.98103 4.54783,6.80045 8.47596,12.67487 7.35446,20.36525 -0.18088,1.24117 0.56902,2.60959 1.67562,3.05557 1.10613,0.44829 2.15062,-0.19649 2.33083,-1.43773 1.43694,-9.85172 -3.53734,-17.29 -8.34743,-24.48384 -5.9158,-8.84622 -11.50301,-17.20121 -5.67793,-30.73975 0.46484,-1.08078 0.0152,-2.56953 -1.00547,-3.32627 -0.33765,-0.25068 -0.69588,-0.38937 -1.04062,-0.42368"
           style="fill:#685938;fill-opacity:1;fill-rule:nonzero;stroke:none;stroke-width:0.72771"
           id="path13207" /><path
           d="m 246.71814,233.26175 c -0.59588,-0.0593 -1.15958,0.19131 -1.50879,0.74406 -3.21438,5.10136 -2.92796,15.46832 0.63875,23.11019 2.40267,5.14922 5.87699,8.24462 9.78201,8.71746 3.23366,0.39736 5.62993,-0.51084 7.13236,-2.68145 2.63889,-3.81295 1.23618,-10.08642 1.17575,-10.35119 -0.30262,-1.31368 -1.41743,-2.28349 -2.50244,-2.16577 -1.07963,0.11827 -1.7094,1.27779 -1.40739,2.5922 0.2653,1.18805 0.67875,4.69843 -0.60538,6.53684 -0.788,1.12805 -2.13898,1.55907 -4.12021,1.31862 -2.92892,-0.35445 -4.86558,-3.25983 -5.97357,-5.63443 -2.80298,-6.00702 -3.12556,-14.32877 -0.70287,-18.17188 0.60518,-0.96064 0.33187,-2.47274 -0.61167,-3.37517 -0.40029,-0.38354 -0.85754,-0.59579 -1.29655,-0.63948"
           style="fill:#685938;fill-opacity:1;fill-rule:nonzero;stroke:none;stroke-width:0.72771"
           id="path13211" /><path
           d="m 223.76739,232.77443 c -0.70833,-0.0705 -1.35732,0.30062 -1.66029,1.04516 -0.26373,0.64778 -6.3241,16.10318 5.70718,35.42386 0.71686,1.15121 1.9968,1.56253 2.85907,0.91849 0.8616,-0.6441 0.97968,-2.09916 0.26283,-3.25037 -10.39051,-16.68542 -5.32087,-29.87996 -5.1006,-30.43374 0.43751,-1.09609 -0.0389,-2.57807 -1.06607,-3.30872 -0.32742,-0.23235 -0.67152,-0.36177 -1.00212,-0.39468"
           style="fill:#685938;fill-opacity:1;fill-rule:nonzero;stroke:none;stroke-width:0.72771"
           id="path13215" /></g></g></g></svg>
